<svg width="235" height="52" viewBox="0 0 235 52" version="2.0" xmlns="http://www.w3.org/2000/svg" xmlns:xlink="http://www.w3.org/1999/xlink" xmlns:figma="http://www.figma.com/figma/ns">
<title>Group</title>
<desc>Created using Figma (9000)</desc>
<g id="Canvas" transform="translate(1530 160)" figma:type="canvas">
<g id="Group" style="mix-blend-mode:normal;" figma:type="group">
<g id="Group" style="mix-blend-mode:normal;" figma:type="group">
<g id="Vector" style="mix-blend-mode:normal;" figma:type="vector">
<use xlink:href="#path0_fill" transform="matrix(-1 0 0 1 -1295.92 -159.052)" fill="url(#paint0_linear)" fill-opacity="0.19" style="mix-blend-mode:normal;"/>
</g>
</g>
<g id="You have $4,523.23" style="mix-blend-mode:normal;" figma:type="vector">
<use xlink:href="#path1_fill" transform="translate(-1511.52 -142.295)" fill="#FFFFFF" fill-opacity="0.97" style="mix-blend-mode:normal;"/>
<use xlink:href="#path2_fill" transform="translate(-1511.52 -142.295)" fill="#FFFFFF" fill-opacity="0.97" style="mix-blend-mode:normal;"/>
<use xlink:href="#path3_fill" transform="translate(-1511.52 -142.295)" fill="#FFFFFF" fill-opacity="0.97" style="mix-blend-mode:normal;"/>
<use xlink:href="#path4_fill" transform="translate(-1511.52 -142.295)" fill="#FFFFFF" fill-opacity="0.97" style="mix-blend-mode:normal;"/>
<use xlink:href="#path5_fill" transform="translate(-1511.52 -142.295)" fill="#FFFFFF" fill-opacity="0.97" style="mix-blend-mode:normal;"/>
<use xlink:href="#path6_fill" transform="translate(-1511.52 -142.295)" fill="#FFFFFF" fill-opacity="0.97" style="mix-blend-mode:normal;"/>
<use xlink:href="#path7_fill" transform="translate(-1511.52 -142.295)" fill="#FFFFFF" fill-opacity="0.97" style="mix-blend-mode:normal;"/>
<use xlink:href="#path8_fill" transform="translate(-1511.52 -142.295)" fill="#FFFFFF" fill-opacity="0.97" style="mix-blend-mode:normal;"/>
<use xlink:href="#path9_fill" transform="translate(-1511.52 -142.295)" fill="#FFFFFF" fill-opacity="0.97" style="mix-blend-mode:normal;"/>
<use xlink:href="#path10_fill" transform="translate(-1511.52 -142.295)" fill="#FFFFFF" fill-opacity="0.97" style="mix-blend-mode:normal;"/>
<use xlink:href="#path11_fill" transform="translate(-1511.52 -142.295)" fill="#FFFFFF" fill-opacity="0.97" style="mix-blend-mode:normal;"/>
<use xlink:href="#path12_fill" transform="translate(-1511.52 -142.295)" fill="#FFFFFF" fill-opacity="0.97" style="mix-blend-mode:normal;"/>
<use xlink:href="#path13_fill" transform="translate(-1511.52 -142.295)" fill="#FFFFFF" fill-opacity="0.97" style="mix-blend-mode:normal;"/>
<use xlink:href="#path14_fill" transform="translate(-1511.52 -142.295)" fill="#FFFFFF" fill-opacity="0.97" style="mix-blend-mode:normal;"/>
<use xlink:href="#path15_fill" transform="translate(-1511.52 -142.295)" fill="#FFFFFF" fill-opacity="0.97" style="mix-blend-mode:normal;"/>
<use xlink:href="#path16_fill" transform="translate(-1511.52 -142.295)" fill="#FFFFFF" fill-opacity="0.97" style="mix-blend-mode:normal;"/>
</g>
</g>
</g>
<defs>
<linearGradient id="paint0_linear" x1="0" y1="0" x2="1" y2="0" gradientUnits="userSpaceOnUse" gradientTransform="matrix(1.4297e-14 50.5223 -233.487 3.0936e-15 233.487 0)">
<stop offset="0" stop-color="#FFFFFF"/>
<stop offset="1" stop-color="#FFFFFF" stop-opacity="0.81"/>
</linearGradient>
<path id="path0_fill" d="
M 207.462 0
L 34.9487 0
C 20.5974 0 8.92308 10.1788 8.92308 24.5182
C 8.92308 25.0383 8.92308 25.5584 8.99743 26.0784
L 8.99743 36.4058
C 8.99743 42.6468 5.35385 47.9962 0 50.5223
C 6.91538 50.3737 13.3846 48.3677 18.8872 44.95
C 23.3487 48.442 28.9256 50.5223 34.9487 50.5223
L 207.462 50.5223
C 221.813 50.5223 233.487 38.8576 233.487 24.5182
C 233.487 10.1788 221.813 0 207.462 0
Z"/>
<path id="path1_fill" d="
M 4.62 15.5
L 4.62 9.6
L 0 1.5
L 1.84 1.5
L 5.4 8
L 5.44 8
L 9 1.5
L 10.84 1.5
L 6.22 9.6
L 6.22 15.5
L 4.62 15.5
Z"/>
<path id="path2_fill" d="
M 16.96 14.32
C 17.8533 14.32 18.5933 13.96 19.18 13.24
C 19.78 12.5067 20.08 11.4933 20.08 10.2
C 20.08 8.90667 19.7867 7.9 19.2 7.18
C 18.6133 6.44667 17.8667 6.08 16.96 6.08
C 16.0267 6.08 15.26 6.44 14.66 7.16
C 14.06 7.86667 13.76 8.88 13.76 10.2
C 13.76 11.52 14.06 12.54 14.66 13.26
C 15.26 13.9667 16.0267 14.32 16.96 14.32
Z
M 16.96 15.8
C 15.56 15.8 14.4067 15.3067 13.5 14.32
C 12.5933 13.3333 12.14 11.96 12.14 10.2
C 12.14 8.46667 12.6067 7.1 13.54 6.1
C 14.4733 5.1 15.6133 4.6 16.96 4.6
C 18.2933 4.6 19.4133 5.1 20.32 6.1
C 21.24 7.1 21.7 8.46667 21.7 10.2
C 21.7 11.96 21.2533 13.3333 20.36 14.32
C 19.4667 15.3067 18.3333 15.8 16.96 15.8
Z"/>
<path id="path3_fill" d="
M 24.3 11.8
L 24.3 4.9
L 25.94 4.9
L 25.94 11.56
C 25.94 12.5467 26.1267 13.2467 26.5 13.66
C 26.8867 14.0733 27.52 14.28 28.4 14.28
C 29.2 14.28 29.8133 14.0333 30.24 13.54
C 30.6667 13.0467 30.88 12.36 30.88 11.48
L 30.88 4.9
L 32.5 4.9
L 32.5 15.5
L 30.9 15.5
L 30.9 14.48
L 30.86 14.48
C 30.7933 14.5733 30.6933 14.6933 30.56 14.84
C 30.4267 14.9867 30.1133 15.1867 29.62 15.44
C 29.14 15.68 28.6133 15.8 28.04 15.8
C 26.8667 15.8 25.9467 15.4667 25.28 14.8
C 24.6267 14.1333 24.3 13.1333 24.3 11.8
Z"/>
<path id="path4_fill" d="
M 40.9 15.5
L 40.9 0.9
L 42.54 0.9
L 42.54 5.96
L 42.58 5.96
C 42.8733 5.56 43.3 5.23333 43.86 4.98
C 44.4333 4.72667 45.04 4.6 45.68 4.6
C 46.8133 4.6 47.7267 4.94667 48.42 5.64
C 49.1267 6.32 49.48 7.3 49.48 8.58
L 49.48 15.5
L 47.84 15.5
L 47.84 9.02
C 47.84 7.07333 47.02 6.1 45.38 6.1
C 44.5133 6.1 43.82 6.35333 43.3 6.86
C 42.7933 7.36667 42.54 8.02667 42.54 8.84
L 42.54 15.5
L 40.9 15.5
Z"/>
<path id="path5_fill" d="
M 58.94 15.5
L 58.94 14.34
L 58.9 14.34
C 58.7 14.6867 58.32 15.02 57.76 15.34
C 57.2 15.6467 56.5 15.8 55.66 15.8
C 54.4867 15.8 53.5933 15.5133 52.98 14.94
C 52.38 14.3667 52.08 13.6467 52.08 12.78
C 52.08 11.9 52.3467 11.2133 52.88 10.72
C 53.4267 10.2133 54.3467 9.79333 55.64 9.46
C 56.12 9.34 56.4733 9.24667 56.7 9.18
C 56.94 9.11333 57.2133 9.02667 57.52 8.92
C 57.8267 8.8 58.0467 8.68667 58.18 8.58
C 58.3133 8.47333 58.4267 8.34 58.52 8.18
C 58.6267 8.02 58.68 7.84 58.68 7.64
C 58.68 7.18667 58.4933 6.81333 58.12 6.52
C 57.76 6.21333 57.2067 6.06 56.46 6.06
C 55.0467 6.06 54.1867 6.76 53.88 8.16
L 52.4 7.74
C 52.5733 6.80667 53.0067 6.05333 53.7 5.48
C 54.3933 4.89333 55.2933 4.6 56.4 4.6
C 57.6267 4.6 58.5933 4.90667 59.3 5.52
C 60.02 6.12 60.38 7.06667 60.38 8.36
L 60.38 15.5
L 58.94 15.5
Z
M 56.02 10.72
C 55.1133 10.9733 54.4933 11.2467 54.16 11.54
C 53.84 11.8333 53.68 12.2133 53.68 12.68
C 53.68 13.7867 54.38 14.34 55.78 14.34
C 56.74 14.34 57.48 14.1267 58 13.7
C 58.52 13.26 58.78 12.7267 58.78 12.1
L 58.78 9.46
L 58.74 9.46
C 58.5533 9.84667 57.6467 10.2667 56.02 10.72
Z"/>
<path id="path6_fill" d="
M 66.66 15.5
L 62.38 4.9
L 64.06 4.9
L 67.3 13.2
L 67.34 13.2
L 70.58 4.9
L 72.26 4.9
L 67.98 15.5
L 66.66 15.5
Z"/>
<path id="path7_fill" d="
M 81.8 12.24
L 83.12 13.1
C 82.72 13.8733 82.1467 14.52 81.4 15.04
C 80.6667 15.5467 79.76 15.8 78.68 15.8
C 77.24 15.8 76.06 15.2933 75.14 14.28
C 74.22 13.2533 73.76 11.8933 73.76 10.2
C 73.76 8.50667 74.2067 7.15333 75.1 6.14
C 76.0067 5.11333 77.1733 4.6 78.6 4.6
C 80.0133 4.6 81.16 5.1 82.04 6.1
C 82.92 7.1 83.36 8.46667 83.36 10.2
L 83.36 10.68
L 75.4 10.68
C 75.4133 11.6933 75.6933 12.5533 76.24 13.26
C 76.8 13.9667 77.6 14.32 78.64 14.32
C 79.04 14.32 79.4133 14.2667 79.76 14.16
C 80.1067 14.04 80.3733 13.9267 80.56 13.82
C 80.7467 13.7 80.94 13.5133 81.14 13.26
C 81.3533 12.9933 81.48 12.82 81.52 12.74
C 81.5733 12.66 81.6667 12.4933 81.8 12.24
Z
M 75.44 9.38
L 81.74 9.38
C 81.7133 8.48667 81.4467 7.71333 80.94 7.06
C 80.4333 6.40667 79.6533 6.08 78.6 6.08
C 77.5733 6.08 76.7933 6.43333 76.26 7.14
C 75.7267 7.83333 75.4533 8.58 75.44 9.38
Z"/>
<path id="path8_fill" d="
M 90.56 10.68
L 92.28 10.34
C 92.48 11.5533 92.82 12.4667 93.3 13.08
C 93.78 13.6933 94.5467 14.06 95.6 14.18
C 95.6 13.5933 95.6 12.7 95.6 11.5
C 95.6133 10.3 95.62 9.40667 95.62 8.82
C 94.1133 8.42 93 7.90667 92.28 7.28
C 91.56 6.65333 91.2 5.86667 91.2 4.92
C 91.2 3.92 91.5933 3.06667 92.38 2.36
C 93.18 1.64 94.2667 1.25333 95.64 1.2
L 95.64 0
L 96.52 0
L 96.52 1.24
C 97.7067 1.34667 98.68 1.72 99.44 2.36
C 100.213 3 100.693 3.9 100.88 5.06
L 99.24 5.42
C 99.0667 4.64667 98.7733 4.04 98.36 3.6
C 97.96 3.16 97.34 2.9 96.5 2.82
L 96.5 7.42
C 98.3933 7.96667 99.6933 8.55333 100.4 9.18
C 101.12 9.80667 101.48 10.66 101.48 11.74
C 101.48 12.9267 101.047 13.9 100.18 14.66
C 99.3133 15.4067 98.08 15.7867 96.48 15.8
L 96.48 17.46
L 95.6 17.46
L 95.6 15.76
C 92.6267 15.48 90.9467 13.7867 90.56 10.68
Z
M 96.5 9.06
C 96.5 9.63333 96.4933 10.5 96.48 11.66
C 96.48 12.8067 96.48 13.6667 96.48 14.24
C 97.6133 14.24 98.4533 14.0067 99 13.54
C 99.5467 13.0733 99.82 12.4667 99.82 11.72
C 99.82 11.0933 99.5933 10.5933 99.14 10.22
C 98.7 9.83333 97.82 9.44667 96.5 9.06
Z
M 92.88 4.92
C 92.88 5.44 93.08 5.88 93.48 6.24
C 93.8933 6.58667 94.6067 6.9 95.62 7.18
L 95.62 2.78
C 94.7133 2.80667 94.0267 3.02 93.56 3.42
C 93.1067 3.82 92.88 4.32 92.88 4.92
Z"/>
<path id="path9_fill" d="
M 103.38 12.26
L 103.38 10.76
L 109 1.5
L 111.52 1.5
L 111.52 10.74
L 113.26 10.74
L 113.26 12.26
L 111.52 12.26
L 111.52 15.5
L 109.92 15.5
L 109.92 12.26
L 103.38 12.26
Z
M 105.04 10.74
L 109.92 10.74
L 109.92 2.76
L 109.88 2.76
L 105.04 10.74
Z"/>
<path id="path10_fill" d="
M 115.86 17.62
L 115.86 16.72
C 116.5 16.6 116.82 16.1933 116.82 15.5
L 115.86 15.5
L 115.86 13.14
L 118.22 13.14
L 118.22 15.2
C 118.22 16.7067 117.433 17.5133 115.86 17.62
Z"/>
<path id="path11_fill" d="
M 121.22 11.92
L 122.8 11.36
C 123.333 13.3067 124.473 14.28 126.22 14.28
C 127.22 14.28 128.013 13.9733 128.6 13.36
C 129.187 12.7333 129.48 11.88 129.48 10.8
C 129.48 9.77333 129.187 8.96667 128.6 8.38
C 128.027 7.79333 127.26 7.5 126.3 7.5
C 124.94 7.5 123.9 8.06 123.18 9.18
L 121.7 8.54
L 122.96 1.5
L 129.86 1.5
L 129.86 3.02
L 124.22 3.02
L 123.42 7.44
L 123.44 7.46
C 123.72 7.08667 124.133 6.77333 124.68 6.52
C 125.24 6.26667 125.893 6.14 126.64 6.14
C 127.88 6.14 128.933 6.57333 129.8 7.44
C 130.667 8.29333 131.1 9.42 131.1 10.82
C 131.1 12.3267 130.64 13.5333 129.72 14.44
C 128.8 15.3467 127.633 15.8 126.22 15.8
C 124.927 15.8 123.847 15.4467 122.98 14.74
C 122.127 14.02 121.54 13.08 121.22 11.92
Z"/>
<path id="path12_fill" d="
M 133.28 15.5
L 133.28 14.24
C 133.28 12.9467 133.52 11.9467 134 11.24
C 134.44 10.5467 135.48 9.76667 137.12 8.9
C 137.68 8.59333 138.053 8.38667 138.24 8.28
C 138.44 8.17333 138.727 8 139.1 7.76
C 139.487 7.52 139.74 7.33333 139.86 7.2
C 139.993 7.06667 140.147 6.88667 140.32 6.66
C 140.507 6.43333 140.627 6.20667 140.68 5.98
C 140.733 5.74 140.76 5.47333 140.76 5.18
C 140.76 4.5 140.52 3.92 140.04 3.44
C 139.573 2.94667 138.867 2.7 137.92 2.7
C 137 2.7 136.26 2.98667 135.7 3.56
C 135.153 4.12 134.853 4.91333 134.8 5.94
L 133.2 5.78
C 133.253 4.34 133.713 3.22 134.58 2.42
C 135.46 1.60667 136.587 1.2 137.96 1.2
C 139.347 1.2 140.427 1.59333 141.2 2.38
C 141.973 3.15333 142.36 4.11333 142.36 5.26
C 142.36 5.87333 142.273 6.41333 142.1 6.88
C 141.927 7.33333 141.613 7.76 141.16 8.16
C 140.707 8.54667 140.353 8.82 140.1 8.98
C 139.86 9.12667 139.407 9.38 138.74 9.74
C 138.62 9.80667 138.527 9.86 138.46 9.9
C 138.313 9.98 138.093 10.1 137.8 10.26
C 137.52 10.4067 137.327 10.5133 137.22 10.58
C 137.113 10.6333 136.953 10.72 136.74 10.84
C 136.54 10.96 136.393 11.0533 136.3 11.12
C 136.22 11.1867 136.113 11.2733 135.98 11.38
C 135.847 11.4867 135.74 11.5867 135.66 11.68
C 135.58 11.7733 135.507 11.8733 135.44 11.98
C 135.173 12.3933 135.04 13.0133 135.04 13.84
L 142.4 13.84
L 142.4 15.5
L 133.28 15.5
Z"/>
<path id="path13_fill" d="
M 144.5 10.9
L 146.12 10.58
C 146.28 11.86 146.627 12.8 147.16 13.4
C 147.693 14 148.487 14.3 149.54 14.3
C 150.553 14.3 151.32 14.04 151.84 13.52
C 152.373 12.9867 152.64 12.3333 152.64 11.56
C 152.64 9.66667 151.62 8.72 149.58 8.72
L 148.58 8.72
L 148.58 7.28
L 149 7.28
C 149.293 7.28 149.573 7.26 149.84 7.22
C 150.107 7.18 150.44 7.1 150.84 6.98
C 151.24 6.84667 151.56 6.61333 151.8 6.28
C 152.04 5.94667 152.16 5.53333 152.16 5.04
C 152.16 4.30667 151.927 3.73333 151.46 3.32
C 150.993 2.90667 150.36 2.7 149.56 2.7
C 148.76 2.7 148.12 2.93333 147.64 3.4
C 147.173 3.86667 146.887 4.52 146.78 5.36
L 145.22 5.08
C 145.34 3.90667 145.793 2.96667 146.58 2.26
C 147.38 1.55333 148.38 1.2 149.58 1.2
C 150.793 1.2 151.793 1.53333 152.58 2.2
C 153.367 2.85333 153.76 3.76667 153.76 4.94
C 153.76 5.72667 153.533 6.37333 153.08 6.88
C 152.64 7.37333 152.14 7.69333 151.58 7.84
L 151.58 7.88
C 152.327 8.05333 152.953 8.46 153.46 9.1
C 153.98 9.74 154.24 10.5733 154.24 11.6
C 154.24 12.8133 153.807 13.82 152.94 14.62
C 152.073 15.4067 150.947 15.8 149.56 15.8
C 148.16 15.8 147.013 15.4 146.12 14.6
C 145.227 13.8 144.687 12.5667 144.5 10.9
Z"/>
<path id="path14_fill" d="
M 157.24 15.5
L 157.24 13.14
L 159.6 13.14
L 159.6 15.5
L 157.24 15.5
Z"/>
<path id="path15_fill" d="
M 162.78 15.5
L 162.78 14.24
C 162.78 12.9467 163.02 11.9467 163.5 11.24
C 163.94 10.5467 164.98 9.76667 166.62 8.9
C 167.18 8.59333 167.553 8.38667 167.74 8.28
C 167.94 8.17333 168.227 8 168.6 7.76
C 168.987 7.52 169.24 7.33333 169.36 7.2
C 169.493 7.06667 169.647 6.88667 169.82 6.66
C 170.007 6.43333 170.127 6.20667 170.18 5.98
C 170.233 5.74 170.26 5.47333 170.26 5.18
C 170.26 4.5 170.02 3.92 169.54 3.44
C 169.073 2.94667 168.367 2.7 167.42 2.7
C 166.5 2.7 165.76 2.98667 165.2 3.56
C 164.653 4.12 164.353 4.91333 164.3 5.94
L 162.7 5.78
C 162.753 4.34 163.213 3.22 164.08 2.42
C 164.96 1.60667 166.087 1.2 167.46 1.2
C 168.847 1.2 169.927 1.59333 170.7 2.38
C 171.473 3.15333 171.86 4.11333 171.86 5.26
C 171.86 5.87333 171.773 6.41333 171.6 6.88
C 171.427 7.33333 171.113 7.76 170.66 8.16
C 170.207 8.54667 169.853 8.82 169.6 8.98
C 169.36 9.12667 168.907 9.38 168.24 9.74
C 168.12 9.80667 168.027 9.86 167.96 9.9
C 167.813 9.98 167.593 10.1 167.3 10.26
C 167.02 10.4067 166.827 10.5133 166.72 10.58
C 166.613 10.6333 166.453 10.72 166.24 10.84
C 166.04 10.96 165.893 11.0533 165.8 11.12
C 165.72 11.1867 165.613 11.2733 165.48 11.38
C 165.347 11.4867 165.24 11.5867 165.16 11.68
C 165.08 11.7733 165.007 11.8733 164.94 11.98
C 164.673 12.3933 164.54 13.0133 164.54 13.84
L 171.9 13.84
L 171.9 15.5
L 162.78 15.5
Z"/>
<path id="path16_fill" d="
M 174 10.9
L 175.62 10.58
C 175.78 11.86 176.127 12.8 176.66 13.4
C 177.193 14 177.987 14.3 179.04 14.3
C 180.053 14.3 180.82 14.04 181.34 13.52
C 181.873 12.9867 182.14 12.3333 182.14 11.56
C 182.14 9.66667 181.12 8.72 179.08 8.72
L 178.08 8.72
L 178.08 7.28
L 178.5 7.28
C 178.793 7.28 179.073 7.26 179.34 7.22
C 179.607 7.18 179.94 7.1 180.34 6.98
C 180.74 6.84667 181.06 6.61333 181.3 6.28
C 181.54 5.94667 181.66 5.53333 181.66 5.04
C 181.66 4.30667 181.427 3.73333 180.96 3.32
C 180.493 2.90667 179.86 2.7 179.06 2.7
C 178.26 2.7 177.62 2.93333 177.14 3.4
C 176.673 3.86667 176.387 4.52 176.28 5.36
L 174.72 5.08
C 174.84 3.90667 175.293 2.96667 176.08 2.26
C 176.88 1.55333 177.88 1.2 179.08 1.2
C 180.293 1.2 181.293 1.53333 182.08 2.2
C 182.867 2.85333 183.26 3.76667 183.26 4.94
C 183.26 5.72667 183.033 6.37333 182.58 6.88
C 182.14 7.37333 181.64 7.69333 181.08 7.84
L 181.08 7.88
C 181.827 8.05333 182.453 8.46 182.96 9.1
C 183.48 9.74 183.74 10.5733 183.74 11.6
C 183.74 12.8133 183.307 13.82 182.44 14.62
C 181.573 15.4067 180.447 15.8 179.06 15.8
C 177.66 15.8 176.513 15.4 175.62 14.6
C 174.727 13.8 174.187 12.5667 174 10.9
Z"/>
</defs>
</svg>
