<svg width="319" height="83" viewBox="0 0 319 83" version="2.0" xmlns="http://www.w3.org/2000/svg" xmlns:xlink="http://www.w3.org/1999/xlink" xmlns:figma="http://www.figma.com/figma/ns">
<title>Group</title>
<desc>Created using Figma (9000)</desc>
<g id="Canvas" transform="translate(1746 286)" figma:type="canvas">
<g id="Group" style="mix-blend-mode:normal;" figma:type="group">
<g id="Group" style="mix-blend-mode:normal;" figma:type="group">
<g id="Vector" style="mix-blend-mode:normal;" figma:type="vector">
<use xlink:href="#path0_fill" transform="matrix(-1 0 0 1 -1427.82 -286)" fill="#3B7CD7" style="mix-blend-mode:normal;"/>
</g>
</g>
<g id="Teller, how much money do I have in the bank these days?" style="mix-blend-mode:normal;" figma:type="vector">
<use xlink:href="#path1_fill" transform="translate(-1717.91 -267.365)" fill="#FFFFFF" fill-opacity="0.97" style="mix-blend-mode:normal;"/>
<use xlink:href="#path2_fill" transform="translate(-1717.91 -267.365)" fill="#FFFFFF" fill-opacity="0.97" style="mix-blend-mode:normal;"/>
<use xlink:href="#path3_fill" transform="translate(-1717.91 -267.365)" fill="#FFFFFF" fill-opacity="0.97" style="mix-blend-mode:normal;"/>
<use xlink:href="#path4_fill" transform="translate(-1717.91 -267.365)" fill="#FFFFFF" fill-opacity="0.97" style="mix-blend-mode:normal;"/>
<use xlink:href="#path5_fill" transform="translate(-1717.91 -267.365)" fill="#FFFFFF" fill-opacity="0.97" style="mix-blend-mode:normal;"/>
<use xlink:href="#path6_fill" transform="translate(-1717.91 -267.365)" fill="#FFFFFF" fill-opacity="0.97" style="mix-blend-mode:normal;"/>
<use xlink:href="#path7_fill" transform="translate(-1717.91 -267.365)" fill="#FFFFFF" fill-opacity="0.97" style="mix-blend-mode:normal;"/>
<use xlink:href="#path8_fill" transform="translate(-1717.91 -267.365)" fill="#FFFFFF" fill-opacity="0.97" style="mix-blend-mode:normal;"/>
<use xlink:href="#path9_fill" transform="translate(-1717.91 -267.365)" fill="#FFFFFF" fill-opacity="0.97" style="mix-blend-mode:normal;"/>
<use xlink:href="#path10_fill" transform="translate(-1717.91 -267.365)" fill="#FFFFFF" fill-opacity="0.97" style="mix-blend-mode:normal;"/>
<use xlink:href="#path11_fill" transform="translate(-1717.91 -267.365)" fill="#FFFFFF" fill-opacity="0.97" style="mix-blend-mode:normal;"/>
<use xlink:href="#path12_fill" transform="translate(-1717.91 -267.365)" fill="#FFFFFF" fill-opacity="0.97" style="mix-blend-mode:normal;"/>
<use xlink:href="#path13_fill" transform="translate(-1717.91 -267.365)" fill="#FFFFFF" fill-opacity="0.97" style="mix-blend-mode:normal;"/>
<use xlink:href="#path14_fill" transform="translate(-1717.91 -267.365)" fill="#FFFFFF" fill-opacity="0.97" style="mix-blend-mode:normal;"/>
<use xlink:href="#path15_fill" transform="translate(-1717.91 -267.365)" fill="#FFFFFF" fill-opacity="0.97" style="mix-blend-mode:normal;"/>
<use xlink:href="#path16_fill" transform="translate(-1717.91 -267.365)" fill="#FFFFFF" fill-opacity="0.97" style="mix-blend-mode:normal;"/>
<use xlink:href="#path17_fill" transform="translate(-1717.91 -267.365)" fill="#FFFFFF" fill-opacity="0.97" style="mix-blend-mode:normal;"/>
<use xlink:href="#path18_fill" transform="translate(-1717.91 -267.365)" fill="#FFFFFF" fill-opacity="0.97" style="mix-blend-mode:normal;"/>
<use xlink:href="#path19_fill" transform="translate(-1717.91 -267.365)" fill="#FFFFFF" fill-opacity="0.97" style="mix-blend-mode:normal;"/>
<use xlink:href="#path20_fill" transform="translate(-1717.91 -267.365)" fill="#FFFFFF" fill-opacity="0.97" style="mix-blend-mode:normal;"/>
<use xlink:href="#path21_fill" transform="translate(-1717.91 -267.365)" fill="#FFFFFF" fill-opacity="0.97" style="mix-blend-mode:normal;"/>
<use xlink:href="#path22_fill" transform="translate(-1717.91 -267.365)" fill="#FFFFFF" fill-opacity="0.97" style="mix-blend-mode:normal;"/>
<use xlink:href="#path23_fill" transform="translate(-1717.91 -267.365)" fill="#FFFFFF" fill-opacity="0.97" style="mix-blend-mode:normal;"/>
<use xlink:href="#path24_fill" transform="translate(-1717.91 -267.365)" fill="#FFFFFF" fill-opacity="0.97" style="mix-blend-mode:normal;"/>
<use xlink:href="#path25_fill" transform="translate(-1717.91 -267.365)" fill="#FFFFFF" fill-opacity="0.97" style="mix-blend-mode:normal;"/>
<use xlink:href="#path26_fill" transform="translate(-1717.91 -267.365)" fill="#FFFFFF" fill-opacity="0.97" style="mix-blend-mode:normal;"/>
<use xlink:href="#path27_fill" transform="translate(-1717.91 -267.365)" fill="#FFFFFF" fill-opacity="0.97" style="mix-blend-mode:normal;"/>
<use xlink:href="#path28_fill" transform="translate(-1717.91 -267.365)" fill="#FFFFFF" fill-opacity="0.97" style="mix-blend-mode:normal;"/>
<use xlink:href="#path29_fill" transform="translate(-1717.91 -267.365)" fill="#FFFFFF" fill-opacity="0.97" style="mix-blend-mode:normal;"/>
<use xlink:href="#path30_fill" transform="translate(-1717.91 -267.365)" fill="#FFFFFF" fill-opacity="0.97" style="mix-blend-mode:normal;"/>
<use xlink:href="#path31_fill" transform="translate(-1717.91 -267.365)" fill="#FFFFFF" fill-opacity="0.97" style="mix-blend-mode:normal;"/>
<use xlink:href="#path32_fill" transform="translate(-1717.91 -267.365)" fill="#FFFFFF" fill-opacity="0.97" style="mix-blend-mode:normal;"/>
<use xlink:href="#path33_fill" transform="translate(-1717.91 -267.365)" fill="#FFFFFF" fill-opacity="0.97" style="mix-blend-mode:normal;"/>
<use xlink:href="#path34_fill" transform="translate(-1717.91 -267.365)" fill="#FFFFFF" fill-opacity="0.97" style="mix-blend-mode:normal;"/>
<use xlink:href="#path35_fill" transform="translate(-1717.91 -267.365)" fill="#FFFFFF" fill-opacity="0.97" style="mix-blend-mode:normal;"/>
<use xlink:href="#path36_fill" transform="translate(-1717.91 -267.365)" fill="#FFFFFF" fill-opacity="0.97" style="mix-blend-mode:normal;"/>
<use xlink:href="#path37_fill" transform="translate(-1717.91 -267.365)" fill="#FFFFFF" fill-opacity="0.97" style="mix-blend-mode:normal;"/>
<use xlink:href="#path38_fill" transform="translate(-1717.91 -267.365)" fill="#FFFFFF" fill-opacity="0.97" style="mix-blend-mode:normal;"/>
<use xlink:href="#path39_fill" transform="translate(-1717.91 -267.365)" fill="#FFFFFF" fill-opacity="0.97" style="mix-blend-mode:normal;"/>
<use xlink:href="#path40_fill" transform="translate(-1717.91 -267.365)" fill="#FFFFFF" fill-opacity="0.97" style="mix-blend-mode:normal;"/>
<use xlink:href="#path41_fill" transform="translate(-1717.91 -267.365)" fill="#FFFFFF" fill-opacity="0.97" style="mix-blend-mode:normal;"/>
<use xlink:href="#path42_fill" transform="translate(-1717.91 -267.365)" fill="#FFFFFF" fill-opacity="0.97" style="mix-blend-mode:normal;"/>
<use xlink:href="#path43_fill" transform="translate(-1717.91 -267.365)" fill="#FFFFFF" fill-opacity="0.97" style="mix-blend-mode:normal;"/>
<use xlink:href="#path44_fill" transform="translate(-1717.91 -267.365)" fill="#FFFFFF" fill-opacity="0.97" style="mix-blend-mode:normal;"/>
<use xlink:href="#path45_fill" transform="translate(-1717.91 -267.365)" fill="#FFFFFF" fill-opacity="0.97" style="mix-blend-mode:normal;"/>
</g>
</g>
</g>
<defs>
<path id="path0_fill" d="
M 309.256 68.3537
L 309.256 56.4661
L 309.256 26.0041
C 309.256 11.6647 297.582 0 283.231 0
L 26.0256 0
C 11.6744 0 0 11.6647 0 26.0041
L 0 56.4661
C 0 70.8056 11.6744 82.4703 26.0256 82.4703
L 283.231 82.4703
C 289.328 82.4703 294.905 80.3899 299.292 76.898
C 304.795 80.3156 311.264 82.3217 318.18 82.4703
C 312.9 79.9442 309.256 74.5947 309.256 68.3537
Z"/>
<path id="path1_fill" d="
M 4.34 14.6
L 4.34 2.12
L 0 2.12
L 0 0.6
L 10.3 0.6
L 10.3 2.12
L 5.98 2.12
L 5.98 14.6
L 4.34 14.6
Z"/>
<path id="path2_fill" d="
M 19.84 11.34
L 21.16 12.2
C 20.76 12.9733 20.1867 13.62 19.44 14.14
C 18.7067 14.6467 17.8 14.9 16.72 14.9
C 15.28 14.9 14.1 14.3933 13.18 13.38
C 12.26 12.3533 11.8 10.9933 11.8 9.3
C 11.8 7.60667 12.2467 6.25333 13.14 5.24
C 14.0467 4.21333 15.2133 3.7 16.64 3.7
C 18.0533 3.7 19.2 4.2 20.08 5.2
C 20.96 6.2 21.4 7.56667 21.4 9.3
L 21.4 9.78
L 13.44 9.78
C 13.4533 10.7933 13.7333 11.6533 14.28 12.36
C 14.84 13.0667 15.64 13.42 16.68 13.42
C 17.08 13.42 17.4533 13.3667 17.8 13.26
C 18.1467 13.14 18.4133 13.0267 18.6 12.92
C 18.7867 12.8 18.98 12.6133 19.18 12.36
C 19.3933 12.0933 19.52 11.92 19.56 11.84
C 19.6133 11.76 19.7067 11.5933 19.84 11.34
Z
M 13.48 8.48
L 19.78 8.48
C 19.7533 7.58667 19.4867 6.81333 18.98 6.16
C 18.4733 5.50667 17.6933 5.18 16.64 5.18
C 15.6133 5.18 14.8333 5.53333 14.3 6.24
C 13.7667 6.93333 13.4933 7.68 13.48 8.48
Z"/>
<path id="path3_fill" d="
M 24.1 14.6
L 24.1 0
L 25.76 0
L 25.76 14.6
L 24.1 14.6
Z"/>
<path id="path4_fill" d="
M 29.16 14.6
L 29.16 0
L 30.82 0
L 30.82 14.6
L 29.16 14.6
Z"/>
<path id="path5_fill" d="
M 41.56 11.34
L 42.88 12.2
C 42.48 12.9733 41.9067 13.62 41.16 14.14
C 40.4267 14.6467 39.52 14.9 38.44 14.9
C 37 14.9 35.82 14.3933 34.9 13.38
C 33.98 12.3533 33.52 10.9933 33.52 9.3
C 33.52 7.60667 33.9667 6.25333 34.86 5.24
C 35.7667 4.21333 36.9333 3.7 38.36 3.7
C 39.7733 3.7 40.92 4.2 41.8 5.2
C 42.68 6.2 43.12 7.56667 43.12 9.3
L 43.12 9.78
L 35.16 9.78
C 35.1733 10.7933 35.4533 11.6533 36 12.36
C 36.56 13.0667 37.36 13.42 38.4 13.42
C 38.8 13.42 39.1733 13.3667 39.52 13.26
C 39.8667 13.14 40.1333 13.0267 40.32 12.92
C 40.5067 12.8 40.7 12.6133 40.9 12.36
C 41.1133 12.0933 41.24 11.92 41.28 11.84
C 41.3333 11.76 41.4267 11.5933 41.56 11.34
Z
M 35.2 8.48
L 41.5 8.48
C 41.4733 7.58667 41.2067 6.81333 40.7 6.16
C 40.1933 5.50667 39.4133 5.18 38.36 5.18
C 37.3333 5.18 36.5533 5.53333 36.02 6.24
C 35.4867 6.93333 35.2133 7.68 35.2 8.48
Z"/>
<path id="path6_fill" d="
M 45.82 14.6
L 45.82 4
L 47.38 4
L 47.38 5.14
L 47.42 5.14
C 47.6333 4.71333 47.9467 4.38667 48.36 4.16
C 48.7733 3.93333 49.1933 3.82 49.62 3.82
C 49.78 3.82 49.9333 3.84 50.08 3.88
C 50.24 3.90667 50.36 3.93333 50.44 3.96
L 50.54 4.02
L 50.24 5.64
C 50.04 5.53333 49.76 5.48 49.4 5.48
C 48.72 5.48 48.2267 5.70667 47.92 6.16
C 47.6133 6.6 47.46 7.31333 47.46 8.3
L 47.46 14.6
L 45.82 14.6
Z"/>
<path id="path7_fill" d="
M 53.04 16.72
L 53.04 15.82
C 53.68 15.7 54 15.2933 54 14.6
L 53.04 14.6
L 53.04 12.24
L 55.4 12.24
L 55.4 14.3
C 55.4 15.8067 54.6133 16.6133 53.04 16.72
Z"/>
<path id="path8_fill" d="
M 64 14.6
L 64 0
L 65.64 0
L 65.64 5.06
L 65.68 5.06
C 65.9733 4.66 66.4 4.33333 66.96 4.08
C 67.5333 3.82667 68.14 3.7 68.78 3.7
C 69.9133 3.7 70.8267 4.04667 71.52 4.74
C 72.2267 5.42 72.58 6.4 72.58 7.68
L 72.58 14.6
L 70.94 14.6
L 70.94 8.12
C 70.94 6.17333 70.12 5.2 68.48 5.2
C 67.6133 5.2 66.92 5.45333 66.4 5.96
C 65.8933 6.46667 65.64 7.12667 65.64 7.94
L 65.64 14.6
L 64 14.6
Z"/>
<path id="path9_fill" d="
M 80 13.42
C 80.8933 13.42 81.6333 13.06 82.22 12.34
C 82.82 11.6067 83.12 10.5933 83.12 9.3
C 83.12 8.00667 82.8267 7 82.24 6.28
C 81.6533 5.54667 80.9067 5.18 80 5.18
C 79.0667 5.18 78.3 5.54 77.7 6.26
C 77.1 6.96667 76.8 7.98 76.8 9.3
C 76.8 10.62 77.1 11.64 77.7 12.36
C 78.3 13.0667 79.0667 13.42 80 13.42
Z
M 80 14.9
C 78.6 14.9 77.4467 14.4067 76.54 13.42
C 75.6333 12.4333 75.18 11.06 75.18 9.3
C 75.18 7.56667 75.6467 6.2 76.58 5.2
C 77.5133 4.2 78.6533 3.7 80 3.7
C 81.3333 3.7 82.4533 4.2 83.36 5.2
C 84.28 6.2 84.74 7.56667 84.74 9.3
C 84.74 11.06 84.2933 12.4333 83.4 13.42
C 82.5067 14.4067 81.3733 14.9 80 14.9
Z"/>
<path id="path10_fill" d="
M 88.98 14.6
L 86.64 4
L 88.26 4
L 89.96 11.98
L 90 11.98
L 92.8 4
L 94.28 4
L 97.04 11.98
L 97.08 11.98
L 98.98 4
L 100.58 4
L 98.04 14.6
L 96.54 14.6
L 93.54 5.94
L 93.5 5.94
L 90.5 14.6
L 88.98 14.6
Z"/>
<path id="path11_fill" d="
M 108.18 14.6
L 108.18 4
L 109.66 4
L 109.66 5.02
L 109.7 5.02
C 109.953 4.63333 110.327 4.32 110.82 4.08
C 111.313 3.82667 111.84 3.7 112.4 3.7
C 113.067 3.7 113.633 3.85333 114.1 4.16
C 114.58 4.45333 114.947 4.82 115.2 5.26
L 115.24 5.26
C 115.493 4.83333 115.88 4.46667 116.4 4.16
C 116.933 3.85333 117.54 3.7 118.22 3.7
C 119.34 3.7 120.227 4.03333 120.88 4.7
C 121.547 5.35333 121.88 6.24667 121.88 7.38
L 121.88 14.6
L 120.3 14.6
L 120.3 7.88
C 120.3 6.09333 119.58 5.2 118.14 5.2
C 117.407 5.2 116.833 5.42667 116.42 5.88
C 116.02 6.32 115.82 6.94 115.82 7.74
L 115.82 14.6
L 114.24 14.6
L 114.24 7.88
C 114.24 6.09333 113.52 5.2 112.08 5.2
C 111.307 5.2 110.733 5.44 110.36 5.92
C 109.987 6.38667 109.8 6.99333 109.8 7.74
L 109.8 14.6
L 108.18 14.6
Z"/>
<path id="path12_fill" d="
M 125.08 10.9
L 125.08 4
L 126.72 4
L 126.72 10.66
C 126.72 11.6467 126.907 12.3467 127.28 12.76
C 127.667 13.1733 128.3 13.38 129.18 13.38
C 129.98 13.38 130.593 13.1333 131.02 12.64
C 131.447 12.1467 131.66 11.46 131.66 10.58
L 131.66 4
L 133.28 4
L 133.28 14.6
L 131.68 14.6
L 131.68 13.58
L 131.64 13.58
C 131.573 13.6733 131.473 13.7933 131.34 13.94
C 131.207 14.0867 130.893 14.2867 130.4 14.54
C 129.92 14.78 129.393 14.9 128.82 14.9
C 127.647 14.9 126.727 14.5667 126.06 13.9
C 125.407 13.2333 125.08 12.2333 125.08 10.9
Z"/>
<path id="path13_fill" d="
M 143.64 10.54
L 145.22 10.86
C 145.047 12.0867 144.56 13.0667 143.76 13.8
C 142.96 14.5333 141.973 14.9 140.8 14.9
C 139.373 14.9 138.213 14.4067 137.32 13.42
C 136.427 12.42 135.98 11.0467 135.98 9.3
C 135.98 7.58 136.44 6.22 137.36 5.22
C 138.28 4.20667 139.427 3.7 140.8 3.7
C 141.933 3.7 142.893 4.06 143.68 4.78
C 144.48 5.5 144.967 6.43333 145.14 7.58
L 143.6 7.9
C 143.44 7.11333 143.133 6.46667 142.68 5.96
C 142.227 5.44 141.6 5.18 140.8 5.18
C 139.84 5.18 139.067 5.54667 138.48 6.28
C 137.893 7 137.6 8.00667 137.6 9.3
C 137.6 10.58 137.887 11.5867 138.46 12.32
C 139.033 13.0533 139.82 13.42 140.82 13.42
C 141.607 13.42 142.247 13.14 142.74 12.58
C 143.233 12.0067 143.533 11.3267 143.64 10.54
Z"/>
<path id="path14_fill" d="
M 147.82 14.6
L 147.82 0
L 149.46 0
L 149.46 5.06
L 149.5 5.06
C 149.793 4.66 150.22 4.33333 150.78 4.08
C 151.353 3.82667 151.96 3.7 152.6 3.7
C 153.733 3.7 154.647 4.04667 155.34 4.74
C 156.047 5.42 156.4 6.4 156.4 7.68
L 156.4 14.6
L 154.76 14.6
L 154.76 8.12
C 154.76 6.17333 153.94 5.2 152.3 5.2
C 151.433 5.2 150.74 5.45333 150.22 5.96
C 149.713 6.46667 149.46 7.12667 149.46 7.94
L 149.46 14.6
L 147.82 14.6
Z"/>
<path id="path15_fill" d="
M 164.7 14.6
L 164.7 4
L 166.18 4
L 166.18 5.02
L 166.22 5.02
C 166.473 4.63333 166.847 4.32 167.34 4.08
C 167.833 3.82667 168.36 3.7 168.92 3.7
C 169.587 3.7 170.153 3.85333 170.62 4.16
C 171.1 4.45333 171.467 4.82 171.72 5.26
L 171.76 5.26
C 172.013 4.83333 172.4 4.46667 172.92 4.16
C 173.453 3.85333 174.06 3.7 174.74 3.7
C 175.86 3.7 176.747 4.03333 177.4 4.7
C 178.067 5.35333 178.4 6.24667 178.4 7.38
L 178.4 14.6
L 176.82 14.6
L 176.82 7.88
C 176.82 6.09333 176.1 5.2 174.66 5.2
C 173.927 5.2 173.353 5.42667 172.94 5.88
C 172.54 6.32 172.34 6.94 172.34 7.74
L 172.34 14.6
L 170.76 14.6
L 170.76 7.88
C 170.76 6.09333 170.04 5.2 168.6 5.2
C 167.827 5.2 167.253 5.44 166.88 5.92
C 166.507 6.38667 166.32 6.99333 166.32 7.74
L 166.32 14.6
L 164.7 14.6
Z"/>
<path id="path16_fill" d="
M 185.82 13.42
C 186.713 13.42 187.453 13.06 188.04 12.34
C 188.64 11.6067 188.94 10.5933 188.94 9.3
C 188.94 8.00667 188.647 7 188.06 6.28
C 187.473 5.54667 186.727 5.18 185.82 5.18
C 184.887 5.18 184.12 5.54 183.52 6.26
C 182.92 6.96667 182.62 7.98 182.62 9.3
C 182.62 10.62 182.92 11.64 183.52 12.36
C 184.12 13.0667 184.887 13.42 185.82 13.42
Z
M 185.82 14.9
C 184.42 14.9 183.267 14.4067 182.36 13.42
C 181.453 12.4333 181 11.06 181 9.3
C 181 7.56667 181.467 6.2 182.4 5.2
C 183.333 4.2 184.473 3.7 185.82 3.7
C 187.153 3.7 188.273 4.2 189.18 5.2
C 190.1 6.2 190.56 7.56667 190.56 9.3
C 190.56 11.06 190.113 12.4333 189.22 13.42
C 188.327 14.4067 187.193 14.9 185.82 14.9
Z"/>
<path id="path17_fill" d="
M 193.26 14.6
L 193.26 4
L 194.86 4
L 194.86 5.02
L 194.9 5.02
C 195.193 4.63333 195.613 4.32 196.16 4.08
C 196.707 3.82667 197.28 3.7 197.88 3.7
C 199.027 3.7 199.947 4.05333 200.64 4.76
C 201.347 5.46667 201.7 6.42667 201.7 7.64
L 201.7 14.6
L 200.08 14.6
L 200.08 8.16
C 200.08 6.18667 199.267 5.2 197.64 5.2
C 196.813 5.2 196.147 5.43333 195.64 5.9
C 195.147 6.36667 194.9 7.01333 194.9 7.84
L 194.9 14.6
L 193.26 14.6
Z"/>
<path id="path18_fill" d="
M 212.34 11.34
L 213.66 12.2
C 213.26 12.9733 212.687 13.62 211.94 14.14
C 211.207 14.6467 210.3 14.9 209.22 14.9
C 207.78 14.9 206.6 14.3933 205.68 13.38
C 204.76 12.3533 204.3 10.9933 204.3 9.3
C 204.3 7.60667 204.747 6.25333 205.64 5.24
C 206.547 4.21333 207.713 3.7 209.14 3.7
C 210.553 3.7 211.7 4.2 212.58 5.2
C 213.46 6.2 213.9 7.56667 213.9 9.3
L 213.9 9.78
L 205.94 9.78
C 205.953 10.7933 206.233 11.6533 206.78 12.36
C 207.34 13.0667 208.14 13.42 209.18 13.42
C 209.58 13.42 209.953 13.3667 210.3 13.26
C 210.647 13.14 210.913 13.0267 211.1 12.92
C 211.287 12.8 211.48 12.6133 211.68 12.36
C 211.893 12.0933 212.02 11.92 212.06 11.84
C 212.113 11.76 212.207 11.5933 212.34 11.34
Z
M 205.98 8.48
L 212.28 8.48
C 212.253 7.58667 211.987 6.81333 211.48 6.16
C 210.973 5.50667 210.193 5.18 209.14 5.18
C 208.113 5.18 207.333 5.53333 206.8 6.24
C 206.267 6.93333 205.993 7.68 205.98 8.48
Z"/>
<path id="path19_fill" d="
M 217.16 19.1
L 219.28 13.48
L 215.3 4
L 217.02 4
L 220.02 11.32
L 220.06 11.32
L 222.76 4
L 224.44 4
L 218.74 19.1
L 217.16 19.1
Z"/>
<path id="path20_fill" d="
M 238.42 11.08
L 238.42 7.8
C 238.42 7.13333 238.173 6.53333 237.68 6
C 237.187 5.45333 236.527 5.18 235.7 5.18
C 234.647 5.18 233.847 5.54 233.3 6.26
C 232.753 6.98 232.48 7.99333 232.48 9.3
C 232.48 10.6067 232.753 11.62 233.3 12.34
C 233.847 13.06 234.647 13.42 235.7 13.42
C 236.473 13.42 237.12 13.1867 237.64 12.72
C 238.16 12.2533 238.42 11.7067 238.42 11.08
Z
M 238.58 14.6
L 238.58 13.58
L 238.54 13.58
C 238.26 13.9133 237.847 14.22 237.3 14.5
C 236.767 14.7667 236.147 14.9 235.44 14.9
C 234.04 14.9 232.92 14.3933 232.08 13.38
C 231.253 12.3667 230.84 11.0067 230.84 9.3
C 230.84 7.60667 231.273 6.25333 232.14 5.24
C 233.02 4.21333 234.12 3.7 235.44 3.7
C 236.653 3.7 237.633 4.14 238.38 5.02
L 238.42 5.02
L 238.42 0
L 240.06 0
L 240.06 14.6
L 238.58 14.6
Z"/>
<path id="path21_fill" d="
M 247.58 13.42
C 248.473 13.42 249.213 13.06 249.8 12.34
C 250.4 11.6067 250.7 10.5933 250.7 9.3
C 250.7 8.00667 250.407 7 249.82 6.28
C 249.233 5.54667 248.487 5.18 247.58 5.18
C 246.647 5.18 245.88 5.54 245.28 6.26
C 244.68 6.96667 244.38 7.98 244.38 9.3
C 244.38 10.62 244.68 11.64 245.28 12.36
C 245.88 13.0667 246.647 13.42 247.58 13.42
Z
M 247.58 14.9
C 246.18 14.9 245.027 14.4067 244.12 13.42
C 243.213 12.4333 242.76 11.06 242.76 9.3
C 242.76 7.56667 243.227 6.2 244.16 5.2
C 245.093 4.2 246.233 3.7 247.58 3.7
C 248.913 3.7 250.033 4.2 250.94 5.2
C 251.86 6.2 252.32 7.56667 252.32 9.3
C 252.32 11.06 251.873 12.4333 250.98 13.42
C 250.087 14.4067 248.953 14.9 247.58 14.9
Z"/>
<path id="path22_fill" d="
M 260.32 14.6
L 260.32 0.6
L 261.98 0.6
L 261.98 14.6
L 260.32 14.6
Z"/>
<path id="path23_fill" d="
M 1.2 42.8
L 1.2 28.2
L 2.84 28.2
L 2.84 33.26
L 2.88 33.26
C 3.17333 32.86 3.6 32.5333 4.16 32.28
C 4.73333 32.0267 5.34 31.9 5.98 31.9
C 7.11333 31.9 8.02667 32.2467 8.72 32.94
C 9.42667 33.62 9.78 34.6 9.78 35.88
L 9.78 42.8
L 8.14 42.8
L 8.14 36.32
C 8.14 34.3733 7.32 33.4 5.68 33.4
C 4.81333 33.4 4.12 33.6533 3.6 34.16
C 3.09333 34.6667 2.84 35.3267 2.84 36.14
L 2.84 42.8
L 1.2 42.8
Z"/>
<path id="path24_fill" d="
M 19.24 42.8
L 19.24 41.64
L 19.2 41.64
C 19 41.9867 18.62 42.32 18.06 42.64
C 17.5 42.9467 16.8 43.1 15.96 43.1
C 14.7867 43.1 13.8933 42.8133 13.28 42.24
C 12.68 41.6667 12.38 40.9467 12.38 40.08
C 12.38 39.2 12.6467 38.5133 13.18 38.02
C 13.7267 37.5133 14.6467 37.0933 15.94 36.76
C 16.42 36.64 16.7733 36.5467 17 36.48
C 17.24 36.4133 17.5133 36.3267 17.82 36.22
C 18.1267 36.1 18.3467 35.9867 18.48 35.88
C 18.6133 35.7733 18.7267 35.64 18.82 35.48
C 18.9267 35.32 18.98 35.14 18.98 34.94
C 18.98 34.4867 18.7933 34.1133 18.42 33.82
C 18.06 33.5133 17.5067 33.36 16.76 33.36
C 15.3467 33.36 14.4867 34.06 14.18 35.46
L 12.7 35.04
C 12.8733 34.1067 13.3067 33.3533 14 32.78
C 14.6933 32.1933 15.5933 31.9 16.7 31.9
C 17.9267 31.9 18.8933 32.2067 19.6 32.82
C 20.32 33.42 20.68 34.3667 20.68 35.66
L 20.68 42.8
L 19.24 42.8
Z
M 16.32 38.02
C 15.4133 38.2733 14.7933 38.5467 14.46 38.84
C 14.14 39.1333 13.98 39.5133 13.98 39.98
C 13.98 41.0867 14.68 41.64 16.08 41.64
C 17.04 41.64 17.78 41.4267 18.3 41
C 18.82 40.56 19.08 40.0267 19.08 39.4
L 19.08 36.76
L 19.04 36.76
C 18.8533 37.1467 17.9467 37.5667 16.32 38.02
Z"/>
<path id="path25_fill" d="
M 26.96 42.8
L 22.68 32.2
L 24.36 32.2
L 27.6 40.5
L 27.64 40.5
L 30.88 32.2
L 32.56 32.2
L 28.28 42.8
L 26.96 42.8
Z"/>
<path id="path26_fill" d="
M 42.1 39.54
L 43.42 40.4
C 43.02 41.1733 42.4467 41.82 41.7 42.34
C 40.9667 42.8467 40.06 43.1 38.98 43.1
C 37.54 43.1 36.36 42.5933 35.44 41.58
C 34.52 40.5533 34.06 39.1933 34.06 37.5
C 34.06 35.8067 34.5067 34.4533 35.4 33.44
C 36.3067 32.4133 37.4733 31.9 38.9 31.9
C 40.3133 31.9 41.46 32.4 42.34 33.4
C 43.22 34.4 43.66 35.7667 43.66 37.5
L 43.66 37.98
L 35.7 37.98
C 35.7133 38.9933 35.9933 39.8533 36.54 40.56
C 37.1 41.2667 37.9 41.62 38.94 41.62
C 39.34 41.62 39.7133 41.5667 40.06 41.46
C 40.4067 41.34 40.6733 41.2267 40.86 41.12
C 41.0467 41 41.24 40.8133 41.44 40.56
C 41.6533 40.2933 41.78 40.12 41.82 40.04
C 41.8733 39.96 41.9667 39.7933 42.1 39.54
Z
M 35.74 36.68
L 42.04 36.68
C 42.0133 35.7867 41.7467 35.0133 41.24 34.36
C 40.7333 33.7067 39.9533 33.38 38.9 33.38
C 37.8733 33.38 37.0933 33.7333 36.56 34.44
C 36.0267 35.1333 35.7533 35.88 35.74 36.68
Z"/>
<path id="path27_fill" d="
M 51.48 42.8
L 51.48 32.2
L 53.12 32.2
L 53.12 42.8
L 51.48 42.8
Z
M 51.36 30.06
L 51.36 28.2
L 53.24 28.2
L 53.24 30.06
L 51.36 30.06
Z"/>
<path id="path28_fill" d="
M 56.64 42.8
L 56.64 32.2
L 58.24 32.2
L 58.24 33.22
L 58.28 33.22
C 58.5733 32.8333 58.9933 32.52 59.54 32.28
C 60.0867 32.0267 60.66 31.9 61.26 31.9
C 62.4067 31.9 63.3267 32.2533 64.02 32.96
C 64.7267 33.6667 65.08 34.6267 65.08 35.84
L 65.08 42.8
L 63.46 42.8
L 63.46 36.36
C 63.46 34.3867 62.6467 33.4 61.02 33.4
C 60.1933 33.4 59.5267 33.6333 59.02 34.1
C 58.5267 34.5667 58.28 35.2133 58.28 36.04
L 58.28 42.8
L 56.64 42.8
Z"/>
<path id="path29_fill" d="
M 73.76 39.72
L 73.76 33.66
L 72.28 33.66
L 72.28 32.2
L 73.8 32.2
L 73.8 29.6
L 75.36 29.6
L 75.36 32.2
L 77.98 32.2
L 77.98 33.66
L 75.38 33.66
L 75.38 39.52
C 75.38 40.1467 75.4667 40.5867 75.64 40.84
C 75.8133 41.0933 76.16 41.22 76.68 41.22
L 77.48 41.22
L 77.48 42.8
L 76.6 42.8
C 75.6 42.8 74.8733 42.5467 74.42 42.04
C 73.98 41.52 73.76 40.7467 73.76 39.72
Z"/>
<path id="path30_fill" d="
M 80.58 42.8
L 80.58 28.2
L 82.22 28.2
L 82.22 33.26
L 82.26 33.26
C 82.5533 32.86 82.98 32.5333 83.54 32.28
C 84.1133 32.0267 84.72 31.9 85.36 31.9
C 86.4933 31.9 87.4067 32.2467 88.1 32.94
C 88.8067 33.62 89.16 34.6 89.16 35.88
L 89.16 42.8
L 87.52 42.8
L 87.52 36.32
C 87.52 34.3733 86.7 33.4 85.06 33.4
C 84.1933 33.4 83.5 33.6533 82.98 34.16
C 82.4733 34.6667 82.22 35.3267 82.22 36.14
L 82.22 42.8
L 80.58 42.8
Z"/>
<path id="path31_fill" d="
M 99.8 39.54
L 101.12 40.4
C 100.72 41.1733 100.147 41.82 99.4 42.34
C 98.6667 42.8467 97.76 43.1 96.68 43.1
C 95.24 43.1 94.06 42.5933 93.14 41.58
C 92.22 40.5533 91.76 39.1933 91.76 37.5
C 91.76 35.8067 92.2067 34.4533 93.1 33.44
C 94.0067 32.4133 95.1733 31.9 96.6 31.9
C 98.0133 31.9 99.16 32.4 100.04 33.4
C 100.92 34.4 101.36 35.7667 101.36 37.5
L 101.36 37.98
L 93.4 37.98
C 93.4133 38.9933 93.6933 39.8533 94.24 40.56
C 94.8 41.2667 95.6 41.62 96.64 41.62
C 97.04 41.62 97.4133 41.5667 97.76 41.46
C 98.1067 41.34 98.3733 41.2267 98.56 41.12
C 98.7467 41 98.94 40.8133 99.14 40.56
C 99.3533 40.2933 99.48 40.12 99.52 40.04
C 99.5733 39.96 99.6667 39.7933 99.8 39.54
Z
M 93.44 36.68
L 99.74 36.68
C 99.7133 35.7867 99.4467 35.0133 98.94 34.36
C 98.4333 33.7067 97.6533 33.38 96.6 33.38
C 95.5733 33.38 94.7933 33.7333 94.26 34.44
C 93.7267 35.1333 93.4533 35.88 93.44 36.68
Z"/>
<path id="path32_fill" d="
M 110.7 36
L 110.7 39.28
C 110.7 39.9067 110.96 40.4533 111.48 40.92
C 112 41.3867 112.647 41.62 113.42 41.62
C 114.473 41.62 115.273 41.26 115.82 40.54
C 116.367 39.82 116.64 38.8067 116.64 37.5
C 116.64 36.1933 116.367 35.18 115.82 34.46
C 115.273 33.74 114.473 33.38 113.42 33.38
C 112.593 33.38 111.933 33.6533 111.44 34.2
C 110.947 34.7333 110.7 35.3333 110.7 36
Z
M 109.06 42.8
L 109.06 28.2
L 110.7 28.2
L 110.7 33.22
L 110.74 33.22
C 111.487 32.34 112.467 31.9 113.68 31.9
C 115.013 31.9 116.113 32.4133 116.98 33.44
C 117.847 34.4667 118.28 35.82 118.28 37.5
C 118.28 39.2067 117.86 40.5667 117.02 41.58
C 116.193 42.5933 115.08 43.1 113.68 43.1
C 112.973 43.1 112.347 42.9667 111.8 42.7
C 111.267 42.42 110.86 42.1133 110.58 41.78
L 110.54 41.78
L 110.54 42.8
L 109.06 42.8
Z"/>
<path id="path33_fill" d="
M 127.14 42.8
L 127.14 41.64
L 127.1 41.64
C 126.9 41.9867 126.52 42.32 125.96 42.64
C 125.4 42.9467 124.7 43.1 123.86 43.1
C 122.687 43.1 121.793 42.8133 121.18 42.24
C 120.58 41.6667 120.28 40.9467 120.28 40.08
C 120.28 39.2 120.547 38.5133 121.08 38.02
C 121.627 37.5133 122.547 37.0933 123.84 36.76
C 124.32 36.64 124.673 36.5467 124.9 36.48
C 125.14 36.4133 125.413 36.3267 125.72 36.22
C 126.027 36.1 126.247 35.9867 126.38 35.88
C 126.513 35.7733 126.627 35.64 126.72 35.48
C 126.827 35.32 126.88 35.14 126.88 34.94
C 126.88 34.4867 126.693 34.1133 126.32 33.82
C 125.96 33.5133 125.407 33.36 124.66 33.36
C 123.247 33.36 122.387 34.06 122.08 35.46
L 120.6 35.04
C 120.773 34.1067 121.207 33.3533 121.9 32.78
C 122.593 32.1933 123.493 31.9 124.6 31.9
C 125.827 31.9 126.793 32.2067 127.5 32.82
C 128.22 33.42 128.58 34.3667 128.58 35.66
L 128.58 42.8
L 127.14 42.8
Z
M 124.22 38.02
C 123.313 38.2733 122.693 38.5467 122.36 38.84
C 122.04 39.1333 121.88 39.5133 121.88 39.98
C 121.88 41.0867 122.58 41.64 123.98 41.64
C 124.94 41.64 125.68 41.4267 126.2 41
C 126.72 40.56 126.98 40.0267 126.98 39.4
L 126.98 36.76
L 126.94 36.76
C 126.753 37.1467 125.847 37.5667 124.22 38.02
Z"/>
<path id="path34_fill" d="
M 131.78 42.8
L 131.78 32.2
L 133.38 32.2
L 133.38 33.22
L 133.42 33.22
C 133.713 32.8333 134.133 32.52 134.68 32.28
C 135.227 32.0267 135.8 31.9 136.4 31.9
C 137.547 31.9 138.467 32.2533 139.16 32.96
C 139.867 33.6667 140.22 34.6267 140.22 35.84
L 140.22 42.8
L 138.6 42.8
L 138.6 36.36
C 138.6 34.3867 137.787 33.4 136.16 33.4
C 135.333 33.4 134.667 33.6333 134.16 34.1
C 133.667 34.5667 133.42 35.2133 133.42 36.04
L 133.42 42.8
L 131.78 42.8
Z"/>
<path id="path35_fill" d="
M 143.52 42.8
L 143.52 28.2
L 145.16 28.2
L 145.16 37.06
L 145.2 37.06
L 149.66 32.2
L 151.84 32.2
L 147.96 36.4
L 152.32 42.8
L 150.42 42.8
L 146.78 37.42
L 146.74 37.42
L 145.16 39.12
L 145.16 42.8
L 143.52 42.8
Z"/>
<path id="path36_fill" d="
M 159.7 39.72
L 159.7 33.66
L 158.22 33.66
L 158.22 32.2
L 159.74 32.2
L 159.74 29.6
L 161.3 29.6
L 161.3 32.2
L 163.92 32.2
L 163.92 33.66
L 161.32 33.66
L 161.32 39.52
C 161.32 40.1467 161.407 40.5867 161.58 40.84
C 161.753 41.0933 162.1 41.22 162.62 41.22
L 163.42 41.22
L 163.42 42.8
L 162.54 42.8
C 161.54 42.8 160.813 42.5467 160.36 42.04
C 159.92 41.52 159.7 40.7467 159.7 39.72
Z"/>
<path id="path37_fill" d="
M 166.52 42.8
L 166.52 28.2
L 168.16 28.2
L 168.16 33.26
L 168.2 33.26
C 168.493 32.86 168.92 32.5333 169.48 32.28
C 170.053 32.0267 170.66 31.9 171.3 31.9
C 172.433 31.9 173.347 32.2467 174.04 32.94
C 174.747 33.62 175.1 34.6 175.1 35.88
L 175.1 42.8
L 173.46 42.8
L 173.46 36.32
C 173.46 34.3733 172.64 33.4 171 33.4
C 170.133 33.4 169.44 33.6533 168.92 34.16
C 168.413 34.6667 168.16 35.3267 168.16 36.14
L 168.16 42.8
L 166.52 42.8
Z"/>
<path id="path38_fill" d="
M 185.74 39.54
L 187.06 40.4
C 186.66 41.1733 186.087 41.82 185.34 42.34
C 184.607 42.8467 183.7 43.1 182.62 43.1
C 181.18 43.1 180 42.5933 179.08 41.58
C 178.16 40.5533 177.7 39.1933 177.7 37.5
C 177.7 35.8067 178.147 34.4533 179.04 33.44
C 179.947 32.4133 181.113 31.9 182.54 31.9
C 183.953 31.9 185.1 32.4 185.98 33.4
C 186.86 34.4 187.3 35.7667 187.3 37.5
L 187.3 37.98
L 179.34 37.98
C 179.353 38.9933 179.633 39.8533 180.18 40.56
C 180.74 41.2667 181.54 41.62 182.58 41.62
C 182.98 41.62 183.353 41.5667 183.7 41.46
C 184.047 41.34 184.313 41.2267 184.5 41.12
C 184.687 41 184.88 40.8133 185.08 40.56
C 185.293 40.2933 185.42 40.12 185.46 40.04
C 185.513 39.96 185.607 39.7933 185.74 39.54
Z
M 179.38 36.68
L 185.68 36.68
C 185.653 35.7867 185.387 35.0133 184.88 34.36
C 184.373 33.7067 183.593 33.38 182.54 33.38
C 181.513 33.38 180.733 33.7333 180.2 34.44
C 179.667 35.1333 179.393 35.88 179.38 36.68
Z"/>
<path id="path39_fill" d="
M 189.2 39.2
L 190.74 38.9
C 190.94 40.7533 191.92 41.68 193.68 41.68
C 194.52 41.68 195.147 41.5267 195.56 41.22
C 195.987 40.9133 196.2 40.5067 196.2 40
C 196.2 39.4667 196 39.0667 195.6 38.8
C 195.213 38.5333 194.393 38.2267 193.14 37.88
C 191.833 37.52 190.913 37.1133 190.38 36.66
C 189.847 36.2067 189.58 35.5933 189.58 34.82
C 189.58 34.0333 189.907 33.3533 190.56 32.78
C 191.213 32.1933 192.113 31.9 193.26 31.9
C 194.42 31.9 195.34 32.18 196.02 32.74
C 196.7 33.2867 197.153 34.02 197.38 34.94
L 195.96 35.32
C 195.547 33.9733 194.647 33.3 193.26 33.3
C 192.567 33.3 192.033 33.4467 191.66 33.74
C 191.287 34.0333 191.1 34.38 191.1 34.78
C 191.1 35.22 191.28 35.5467 191.64 35.76
C 192 35.9733 192.827 36.2667 194.12 36.64
C 195.493 37.0267 196.433 37.4733 196.94 37.98
C 197.46 38.4733 197.727 39.1467 197.74 40
C 197.74 40.84 197.4 41.5667 196.72 42.18
C 196.053 42.7933 195.047 43.1 193.7 43.1
C 192.3 43.1 191.227 42.74 190.48 42.02
C 189.747 41.2867 189.32 40.3467 189.2 39.2
Z"/>
<path id="path40_fill" d="
M 207.68 39.54
L 209 40.4
C 208.6 41.1733 208.027 41.82 207.28 42.34
C 206.547 42.8467 205.64 43.1 204.56 43.1
C 203.12 43.1 201.94 42.5933 201.02 41.58
C 200.1 40.5533 199.64 39.1933 199.64 37.5
C 199.64 35.8067 200.087 34.4533 200.98 33.44
C 201.887 32.4133 203.053 31.9 204.48 31.9
C 205.893 31.9 207.04 32.4 207.92 33.4
C 208.8 34.4 209.24 35.7667 209.24 37.5
L 209.24 37.98
L 201.28 37.98
C 201.293 38.9933 201.573 39.8533 202.12 40.56
C 202.68 41.2667 203.48 41.62 204.52 41.62
C 204.92 41.62 205.293 41.5667 205.64 41.46
C 205.987 41.34 206.253 41.2267 206.44 41.12
C 206.627 41 206.82 40.8133 207.02 40.56
C 207.233 40.2933 207.36 40.12 207.4 40.04
C 207.453 39.96 207.547 39.7933 207.68 39.54
Z
M 201.32 36.68
L 207.62 36.68
C 207.593 35.7867 207.327 35.0133 206.82 34.36
C 206.313 33.7067 205.533 33.38 204.48 33.38
C 203.453 33.38 202.673 33.7333 202.14 34.44
C 201.607 35.1333 201.333 35.88 201.32 36.68
Z"/>
<path id="path41_fill" d="
M 223.82 39.28
L 223.82 36
C 223.82 35.3333 223.573 34.7333 223.08 34.2
C 222.587 33.6533 221.927 33.38 221.1 33.38
C 220.047 33.38 219.247 33.74 218.7 34.46
C 218.153 35.18 217.88 36.1933 217.88 37.5
C 217.88 38.8067 218.153 39.82 218.7 40.54
C 219.247 41.26 220.047 41.62 221.1 41.62
C 221.873 41.62 222.52 41.3867 223.04 40.92
C 223.56 40.4533 223.82 39.9067 223.82 39.28
Z
M 223.98 42.8
L 223.98 41.78
L 223.94 41.78
C 223.66 42.1133 223.247 42.42 222.7 42.7
C 222.167 42.9667 221.547 43.1 220.84 43.1
C 219.44 43.1 218.32 42.5933 217.48 41.58
C 216.653 40.5667 216.24 39.2067 216.24 37.5
C 216.24 35.8067 216.673 34.4533 217.54 33.44
C 218.42 32.4133 219.52 31.9 220.84 31.9
C 222.053 31.9 223.033 32.34 223.78 33.22
L 223.82 33.22
L 223.82 28.2
L 225.46 28.2
L 225.46 42.8
L 223.98 42.8
Z"/>
<path id="path42_fill" d="
M 235.02 42.8
L 235.02 41.64
L 234.98 41.64
C 234.78 41.9867 234.4 42.32 233.84 42.64
C 233.28 42.9467 232.58 43.1 231.74 43.1
C 230.567 43.1 229.673 42.8133 229.06 42.24
C 228.46 41.6667 228.16 40.9467 228.16 40.08
C 228.16 39.2 228.427 38.5133 228.96 38.02
C 229.507 37.5133 230.427 37.0933 231.72 36.76
C 232.2 36.64 232.553 36.5467 232.78 36.48
C 233.02 36.4133 233.293 36.3267 233.6 36.22
C 233.907 36.1 234.127 35.9867 234.26 35.88
C 234.393 35.7733 234.507 35.64 234.6 35.48
C 234.707 35.32 234.76 35.14 234.76 34.94
C 234.76 34.4867 234.573 34.1133 234.2 33.82
C 233.84 33.5133 233.287 33.36 232.54 33.36
C 231.127 33.36 230.267 34.06 229.96 35.46
L 228.48 35.04
C 228.653 34.1067 229.087 33.3533 229.78 32.78
C 230.473 32.1933 231.373 31.9 232.48 31.9
C 233.707 31.9 234.673 32.2067 235.38 32.82
C 236.1 33.42 236.46 34.3667 236.46 35.66
L 236.46 42.8
L 235.02 42.8
Z
M 232.1 38.02
C 231.193 38.2733 230.573 38.5467 230.24 38.84
C 229.92 39.1333 229.76 39.5133 229.76 39.98
C 229.76 41.0867 230.46 41.64 231.86 41.64
C 232.82 41.64 233.56 41.4267 234.08 41
C 234.6 40.56 234.86 40.0267 234.86 39.4
L 234.86 36.76
L 234.82 36.76
C 234.633 37.1467 233.727 37.5667 232.1 38.02
Z"/>
<path id="path43_fill" d="
M 240.22 47.3
L 242.34 41.68
L 238.36 32.2
L 240.08 32.2
L 243.08 39.52
L 243.12 39.52
L 245.82 32.2
L 247.5 32.2
L 241.8 47.3
L 240.22 47.3
Z"/>
<path id="path44_fill" d="
M 248.8 39.2
L 250.34 38.9
C 250.54 40.7533 251.52 41.68 253.28 41.68
C 254.12 41.68 254.747 41.5267 255.16 41.22
C 255.587 40.9133 255.8 40.5067 255.8 40
C 255.8 39.4667 255.6 39.0667 255.2 38.8
C 254.813 38.5333 253.993 38.2267 252.74 37.88
C 251.433 37.52 250.513 37.1133 249.98 36.66
C 249.447 36.2067 249.18 35.5933 249.18 34.82
C 249.18 34.0333 249.507 33.3533 250.16 32.78
C 250.813 32.1933 251.713 31.9 252.86 31.9
C 254.02 31.9 254.94 32.18 255.62 32.74
C 256.3 33.2867 256.753 34.02 256.98 34.94
L 255.56 35.32
C 255.147 33.9733 254.247 33.3 252.86 33.3
C 252.167 33.3 251.633 33.4467 251.26 33.74
C 250.887 34.0333 250.7 34.38 250.7 34.78
C 250.7 35.22 250.88 35.5467 251.24 35.76
C 251.6 35.9733 252.427 36.2667 253.72 36.64
C 255.093 37.0267 256.033 37.4733 256.54 37.98
C 257.06 38.4733 257.327 39.1467 257.34 40
C 257.34 40.84 257 41.5667 256.32 42.18
C 255.653 42.7933 254.647 43.1 253.3 43.1
C 251.9 43.1 250.827 42.74 250.08 42.02
C 249.347 41.2867 248.92 40.3467 248.8 39.2
Z"/>
<path id="path45_fill" d="
M 261.96 39
L 261.96 37.9
C 261.96 37.42 262.073 37.0067 262.3 36.66
C 262.54 36.3133 262.98 35.9 263.62 35.42
C 264.087 35.0867 264.4 34.8533 264.56 34.72
C 264.733 34.5867 264.96 34.38 265.24 34.1
C 265.533 33.8067 265.727 33.52 265.82 33.24
C 265.927 32.96 265.98 32.64 265.98 32.28
C 265.98 31.6933 265.773 31.1733 265.36 30.72
C 264.947 30.2533 264.307 30.02 263.44 30.02
C 261.653 30.02 260.693 31.0333 260.56 33.06
L 258.94 32.9
C 258.967 31.5933 259.373 30.5333 260.16 29.72
C 260.947 28.9067 262.053 28.5 263.48 28.5
C 264.693 28.5 265.687 28.8533 266.46 29.56
C 267.247 30.2533 267.64 31.14 267.64 32.22
C 267.64 32.8333 267.533 33.3733 267.32 33.84
C 267.107 34.2933 266.88 34.6333 266.64 34.86
C 266.4 35.0867 266.007 35.4067 265.46 35.82
C 265.327 35.9267 265.127 36.08 264.86 36.28
C 264.607 36.48 264.44 36.6133 264.36 36.68
C 264.28 36.7467 264.167 36.8533 264.02 37
C 263.873 37.1333 263.773 37.24 263.72 37.32
C 263.68 37.4 263.64 37.5067 263.6 37.64
C 263.56 37.7733 263.54 37.9133 263.54 38.06
L 263.54 39
L 261.96 39
Z
M 261.64 42.8
L 261.64 40.5
L 263.98 40.5
L 263.98 42.8
L 261.64 42.8
Z"/>
</defs>
</svg>
