<svg width="59" height="46" viewBox="0 0 59 46" version="2.0" xmlns="http://www.w3.org/2000/svg" xmlns:xlink="http://www.w3.org/1999/xlink" xmlns:figma="http://www.figma.com/figma/ns">
<title>Group</title>
<desc>Created using Figma (9000)</desc>
<g id="Canvas" transform="translate(465 475)" figma:type="canvas">
<g id="Group" style="mix-blend-mode:normal;" filter="url(#filter0_d)" figma:type="group">
<g id="Vector" style="mix-blend-mode:normal;" figma:type="vector">
<use xlink:href="#path0_fill" transform="matrix(1 0 0 1 -460 -467.677)" fill="#45FFF5" style="mix-blend-mode:normal;"/>
</g>
<g id="Vector" style="mix-blend-mode:normal;" figma:type="vector">
<use xlink:href="#path1_fill" transform="matrix(1 0 0 1 -432.758 -472)" fill="#45FFF5" style="mix-blend-mode:normal;"/>
</g>
<g id="Vector" style="mix-blend-mode:normal;" figma:type="vector">
<use xlink:href="#path2_fill" transform="matrix(1 0 0 1 -432.67 -465.647)" fill="#45FFF5" style="mix-blend-mode:normal;"/>
</g>
</g>
</g>
<defs>
<filter id="filter0_d" filterUnits="userSpaceOnUse" x="-465" y="-475" width="59" height="47" color-interpolation-filters="sRGB">
<feFlood flood-opacity="0" result="BackgroundImageFix"/>
<desc>type="dropShadow" x="0" y="2" size="5" spread="0" color="0,0,0,0.04" blend="normal"</desc>
<feColorMatrix in="SourceAlpha" type="matrix" values="0 0 0 0 0 0 0 0 0 0 0 0 0 0 0 0 0 0 255 0"/>
<feOffset dx="0" dy="2"/>
<feGaussianBlur stdDeviation="2.5"/>
<feColorMatrix type="matrix" values="0 0 0 0 0 0 0 0 0 0 0 0 0 0 0 0 0 0 0.04 0"/>
<feBlend mode="normal" in2="BackgroundImageFix" result="effect1_dropShadow"/>
<feBlend mode="normal" in="SourceGraphic" in2="effect1_dropShadow" result="shape"/>
</filter>
<path id="path0_fill" d="
M 5.83755 16.1467
C 5.83755 17.1173 6.89892 17.6467 7.69495 17.9996
C 9.37545 18.7055 11.852 19.0584 14.5054 19.0584
C 14.9477 19.0584 15.3899 19.0584 15.8321 19.0584
C 15.9206 18.0878 16.1859 17.029 16.6282 16.1467
C 13.2671 16.9408 9.11011 16.9408 5.83755 16.1467
Z
M 15.6552 20.9113
C 12.7365 20.9995 8.31408 20.7348 5.83755 19.1466
L 5.83755 21.4407
C 5.83755 22.323 6.98737 22.9406 7.69495 23.2053
C 10.083 24.2641 13.7094 24.3524 16.3628 24.1759
C 15.9206 23.2053 15.7437 22.0583 15.6552 20.9113
Z
M 17.1588 26.0288
C 13.8863 26.3817 8.66787 26.117 5.83755 24.3524
L 5.83755 25.8523
C 5.83755 26.6464 6.63357 27.3523 7.87184 27.9699
C 9.55235 28.6758 11.852 29.117 14.5054 29.117
C 16.2744 29.117 17.8664 28.9405 19.1931 28.5876
C 18.3971 27.8817 17.6895 26.9994 17.1588 26.0288
Z
M 21.7581 30.4405
C 17.6895 32.1169 10.8791 32.1169 6.81047 30.264
C 4.59928 29.2934 3.27256 27.7935 3.27256 25.9406
L 3.27256 15.3526
C 1.23827 14.382 0 12.9703 0 11.1174
L 0 5.73516
C 0 3.88226 1.32671 2.3823 3.53791 1.41173
C 5.48376 0.5294 8.22563 0 11.1444 0
C 14.0632 0 16.8051 0.5294 18.7509 1.41173
C 20.9621 2.3823 22.2888 3.88226 22.2888 5.73516
L 22.2888 10.2351
C 23.704 9.61743 25.2076 9.26449 26.8881 9.26449
C 29.9838 9.26449 32.8141 10.4998 34.8484 12.5291
C 36.8827 14.5585 38.1209 17.382 38.1209 20.4701
C 38.1209 23.5583 36.8827 26.3817 34.8484 28.4111
C 32.8141 30.4405 29.9838 31.6757 26.8881 31.6757
C 25.0307 31.6757 23.3502 31.2346 21.7581 30.4405
Z
M 26.8881 11.735
C 22.0235 11.735 18.1318 15.6173 18.1318 20.4701
C 18.1318 25.3229 22.0235 29.2052 26.8881 29.2052
C 31.7527 29.2052 35.6444 25.3229 35.6444 20.4701
C 35.6444 15.7055 31.7527 11.735 26.8881 11.735
Z
M 23.8809 25.2347
C 26.5343 26.9111 30.0722 26.117 31.7527 23.47
C 33.4332 20.8231 32.6372 17.2937 29.9838 15.6173
M 2.91877 6.61749
C 5.39531 9.17626 16.8935 9.17626 19.37 6.61749
C 20.6083 5.294 18.8394 4.14696 17.778 3.7058
C 16.0975 2.99993 13.7978 2.55876 11.1444 2.55876
C 8.49098 2.55876 6.19134 2.9117 4.51083 3.7058
C 3.53791 4.14696 1.76895 5.38223 2.91877 6.61749
Z
M 19.8123 8.64686
C 16.0975 11.0292 6.19134 11.0292 2.47653 8.64686
L 2.47653 11.1174
C 2.47653 11.9115 3.27256 12.5291 4.42238 13.0585
C 6.10289 13.7644 8.40253 14.2056 11.1444 14.2056
C 13.8863 14.2056 16.1859 13.8526 17.8664 13.0585
C 19.1047 12.5291 19.8123 11.8233 19.8123 11.1174
L 19.8123 8.64686
L 19.8123 8.64686
Z"/>
<path id="path1_fill" d="
M 19.4585 13.9409
C 15.4783 6.97043 8.04873 2.55876 0 2.55876
L 0 0
C 9.02166 0 17.3357 4.85283 21.7581 12.6174
L 19.4585 13.9409
Z"/>
<path id="path2_fill" d="
M 14.0632 11.0292
C 11.3213 5.82339 5.83755 2.55876 0 2.55876
L 0 0
C 6.89892 0 13.1787 3.79403 16.3628 9.79389
L 14.0632 11.0292
Z"/>
</defs>
</svg>
